HIERARCHY
ROOT root
{
	OFFSET	0	13.1	24.9
	CHANNELS 6  Xposition Yposition Zposition Xrotation Yrotation Zrotation
	JOINT spine_1
	{
		OFFSET	0	9.99999	0
		CHANNELS 3  Xrotation Yrotation Zrotation
		JOINT spine_2
		{
			OFFSET	0	112	-10
			CHANNELS 3  Xrotation Yrotation Zrotation
			JOINT spine_3
			{
				OFFSET	0	206.5	19.3
				CHANNELS 3  Xrotation Yrotation Zrotation
				JOINT spine_4
				{
					OFFSET	0	110.4	14.6
					CHANNELS 3  Xrotation Yrotation Zrotation
					JOINT neck_1
					{
						OFFSET	0	71.8	-50.3
						CHANNELS 3  Xrotation Yrotation Zrotation
						JOINT neck_2
						{
							OFFSET	0	86.2	-25.8
							CHANNELS 3  Xrotation Yrotation Zrotation
							JOINT head_ee
							{
								OFFSET	0	179.8	-8.7
								CHANNELS 3  Xrotation Yrotation Zrotation
								End Site
								{
									OFFSET	1	0	0
								}
							}
						}
					}
					JOINT left_clavicle
					{
						OFFSET	-43.2	22.4	-70.8
						CHANNELS 3  Xrotation Yrotation Zrotation
						JOINT left_shoulder
						{
							OFFSET	-93.9	-5.79999	48.7
							CHANNELS 3  Xrotation Yrotation Zrotation
							JOINT left_elbow
							{
								OFFSET	-291.4	-30.8	15.2
								CHANNELS 3  Xrotation Yrotation Zrotation
								JOINT left_lowarm_twist
								{
									OFFSET	-110.7	-3.89999	13.6
									CHANNELS 3  Xrotation Yrotation Zrotation
									JOINT left_hand
									{
										OFFSET	-110.7	-3.89999	13.6
										CHANNELS 3  Xrotation Yrotation Zrotation
										JOINT left_ee
										{
											OFFSET	-80.8	-5.10001	12.1
											CHANNELS 3  Xrotation Yrotation Zrotation
											End Site
											{
												OFFSET	1	0	0
											}
										}
									}
								}
							}
						}
					}
					JOINT right_clavicle
					{
						OFFSET	43.2	22.4	-70.8
						CHANNELS 3  Xrotation Yrotation Zrotation
						JOINT right_shoulder
						{
							OFFSET	93.9	-5.79999	48.7
							CHANNELS 3  Xrotation Yrotation Zrotation
							JOINT right_elbow
							{
								OFFSET	291.4	-30.8	15.2
								CHANNELS 3  Xrotation Yrotation Zrotation
								JOINT right_lowarm_twist
								{
									OFFSET	110.7	-3.89999	13.6
									CHANNELS 3  Xrotation Yrotation Zrotation
									JOINT right_hand
									{
										OFFSET	110.7	-3.89999	13.6
										CHANNELS 3  Xrotation Yrotation Zrotation
										JOINT right_ee
										{
											OFFSET	80.8	-5.10001	12.1
											CHANNELS 3  Xrotation Yrotation Zrotation
											End Site
											{
												OFFSET	1	0	0
											}
										}
									}
								}
							}
						}
					}
				}
			}
		}
	}
	JOINT left_hip
	{
		OFFSET	-82.8	-127.5	0.300001
		CHANNELS 3  Xrotation Yrotation Zrotation
		JOINT left_knee
		{
			OFFSET	-28.2	-396.7	2.2
			CHANNELS 3  Xrotation Yrotation Zrotation
			JOINT left_ankle
			{
				OFFSET	-11.7	-411.3	35.4
				CHANNELS 3  Xrotation Yrotation Zrotation
				JOINT left_toes
				{
					OFFSET	0	-60	-88.6
					CHANNELS 3  Xrotation Yrotation Zrotation
					JOINT left_foot_ee
					{
						OFFSET	-22.5	-16.5	-42.2
						CHANNELS 3  Xrotation Yrotation Zrotation
						End Site
						{
							OFFSET	1	0	0
						}
					}
				}
			}
		}
	}
	JOINT right_hip
	{
		OFFSET	82.8	-127.5	0.300001
		CHANNELS 3  Xrotation Yrotation Zrotation
		JOINT right_knee
		{
			OFFSET	28.2	-396.7	2.2
			CHANNELS 3  Xrotation Yrotation Zrotation
			JOINT right_ankle
			{
				OFFSET	11.7	-411.3	35.4
				CHANNELS 3  Xrotation Yrotation Zrotation
				JOINT right_toes
				{
					OFFSET	0	-60	-88.6
					CHANNELS 3  Xrotation Yrotation Zrotation
					JOINT right_foot_ee
					{
						OFFSET	22.5	-16.5	-42.2
						CHANNELS 3  Xrotation Yrotation Zrotation
						End Site
						{
							OFFSET	1	0	0
						}
					}
				}
			}
		}
	}
}
MOTION
Frames: 15
Frame Time: 0.02
2359.16 617.478 -1079.03 -28.7938 42.7686 17.086 7.41203 0.208586 1.71093 7.41365 0.099309 1.72073 7.41416 -0.042574 1.72307 7.41009 0.230046 1.70818 -7.40538 4.49537 -7.35257 -7.23282 13.6258 -6.41827 -0.0 0.0 -0.0 1.3533 2.10844 2.80625 -5.40271 -17.875 57.2248 2.70645 -53.272 1.35761 -70.0367 -6.55071 5.30259 -4.3418 13.825 -22.0672 -0.0 0.0 -0.0 11.9821 6.67944 -24.1832 -67.9618 53.6673 -48.0082 0.33352 9.38164 -0.0273666 -53.9084 4.53637 -4.87154 6.19252 27.5852 -28.8432 0.0 0.0 0.0 4.74277 30.377 11.6231 -7.60417 0.237587 1.14197 41.1118 10.465 -4.97656 14.0384 -0.0 -0.0 -0.0 0.0 -0.0 54.9576 6.32518 -6.62498 -6.11071 -0.202931 -0.915415 -0.128141 19.8172 -0.021292 10.2058 -0.0 -0.0 0.0 0.0 0.0 
2337.22 616.228 -1091.88 -28.1146 44.0387 16.6591 7.11341 0.248668 1.69227 7.11499 0.140496 1.70466 7.11687 -0.00906301 1.71041 7.11288 0.261139 1.69039 -8.12669 4.49108 -7.20257 -7.97822 13.46 -6.17124 -0.0 0.0 -0.0 1.45018 2.98339 3.06909 -4.82452 -18.5237 59.0564 2.47298 -50.7673 1.17353 -70.136 -6.56339 5.30346 -4.15706 9.18262 -23.667 -0.0 0.0 -0.0 11.4936 2.65597 -22.9462 -73.7345 53.7018 -41.5428 0.468618 13.0693 -0.0536798 -55.2258 4.6957 -4.92792 6.07562 25.8021 -29.2901 0.0 0.0 0.0 3.31609 27.6501 11.5703 -9.12185 0.266742 1.37303 40.8487 8.33439 -4.93948 18.4386 -0.0 -0.0 -0.0 0.0 -0.0 54.114 6.56897 -6.12412 -9.44438 -0.272148 -1.42223 -1.17865 22.0173 -0.200691 11.0508 -0.0 -0.0 0.0 0.0 0.0 
2307.97 614.333 -1104.93 -27.4974 45.1396 16.6739 6.93128 0.253309 1.58061 6.93265 0.152231 1.59352 6.93495 0.00726424 1.60076 6.93147 0.259951 1.57953 -8.64182 2.97574 -7.02316 -8.50616 10.4665 -6.26648 -0.0 0.0 -0.0 1.35346 5.76793 3.14309 -5.5987 -20.9951 60.2034 2.38426 -49.7389 1.10532 -68.7061 -6.38101 5.28877 -4.84716 10.1272 -28.0485 -0.0 0.0 -0.0 11.2254 2.37212 -22.354 -72.2368 54.4706 -41.5576 0.43249 12.0926 -0.0458102 -54.035 4.55162 -4.87712 5.97462 26.0821 -28.3692 0.0 0.0 0.0 3.73882 17.2392 11.6228 -11.9636 0.30483 1.80737 41.4356 11.8439 -5.0175 20.789 -0.0 -0.0 -0.0 0.0 -0.0 53.2639 7.50558 -5.83267 -13.756 -0.317758 -2.08206 -4.44387 18.6484 -0.738332 18.7895 -0.0 -0.0 0.0 0.0 0.0 
2279.66 611.434 -1119.7 -25.9768 45.975 15.1954 6.68314 0.338959 1.50758 6.68437 0.242352 1.52608 6.68915 0.0965404 1.54219 6.68599 0.33886 1.5076 -8.22688 3.50407 -7.38472 -8.07054 11.7409 -6.55594 -0.0 0.0 -0.0 1.30361 6.02338 3.07586 -5.75772 -21.2516 61.5732 2.12755 -46.4982 0.914113 -72.9117 -6.91799 5.31888 -4.17638 3.23489 -27.3329 -0.0 0.0 -0.0 11.1402 1.53368 -22.1269 -73.6983 54.2654 -39.7936 0.52224 14.5047 -0.0664597 -52.3142 4.34534 -4.79843 5.94004 26.3612 -27.9277 0.0 0.0 0.0 3.75436 20.5664 10.1932 -18.8672 0.307398 2.86595 40.2105 1.07375 -4.88699 27.3658 -0.0 -0.0 -0.0 0.0 -0.0 52.2825 7.41608 -4.61982 -18.6687 -0.309106 -2.83554 -2.72031 25.5188 -0.483339 17.4203 -0.0 -0.0 0.0 0.0 0.0 
2248.3 615.203 -1140.71 -25.3312 46.163 14.4587 6.53331 0.283588 1.40448 6.53439 0.193652 1.41968 6.53777 0.05435 1.43179 6.53502 0.27977 1.40525 -7.72349 4.11045 -6.42699 -7.59824 12.2288 -5.52796 -0.0 0.0 -0.0 1.12835 7.79096 2.92467 -7.96217 -21.5512 61.7994 1.86705 -42.7608 0.731006 -70.6919 -6.63436 5.30793 -5.5062 0.362126 -39.8142 -0.0 0.0 -0.0 11.3418 3.65677 -22.666 -67.5889 55.7214 -43.5367 0.335554 9.43781 -0.027699 -49.2992 3.98989 -4.64575 6.64411 27.2813 -32.3175 0.0 0.0 0.0 2.99308 16.3708 10.4411 -20.6226 0.287718 3.13456 38.5736 3.52504 -4.73403 30.8635 -0.0 -0.0 -0.0 0.0 -0.0 51.2081 9.96558 -4.94641 -22.7674 -0.252514 -3.46178 -0.61258 13.5098 -0.0967911 18.7908 -0.0 -0.0 0.0 0.0 0.0 
2219.44 622.106 -1152.44 -24.8208 47.1285 13.6645 6.60287 0.292583 1.45352 6.60403 0.199509 1.46918 6.60761 0.0571624 1.48156 6.60466 0.290406 1.45395 -9.7011 3.70464 -7.38268 -9.57319 11.9888 -6.33385 -0.0 0.0 -0.0 1.70668 9.20658 4.06302 -11.5483 -21.5479 61.699 1.6389 -39.0687 0.581505 -70.4268 -6.6005 5.30588 -6.10959 3.77984 -42.8154 -0.0 0.0 -0.0 11.2584 4.21461 -22.5079 -64.6215 54.1626 -44.0078 0.344782 9.6925 -0.0292326 -47.4489 3.77587 -4.54287 5.599 27.9036 -24.4879 0.0 0.0 0.0 5.52054 13.1013 10.654 -26.2125 0.170404 3.98401 36.831 -2.34049 -4.614 34.5206 -0.0 -0.0 -0.0 0.0 -0.0 47.6205 7.66782 -2.43207 -23.0983 -0.245993 -3.51214 4.18622 12.5282 0.648011 18.8901 -0.0 -0.0 0.0 0.0 0.0 
2190.31 627.277 -1176.69 -24.1297 46.6831 12.7238 7.32999 0.263057 1.67342 7.33154 0.156055 1.68676 7.33378 0.0144225 1.6939 7.32989 0.281724 1.67038 -12.409 4.33083 -8.56981 -12.3009 13.6816 -6.99557 -0.0 0.0 -0.0 1.8204 9.53427 4.28616 -16.5145 -21.1965 60.9958 1.41688 -35.0622 0.447607 -73.9129 -7.04597 5.3202 -4.84507 -3.54365 -36.5405 -0.0 0.0 -0.0 10.6066 3.6326 -21.0823 -63.8822 57.6305 -45.4296 0.358053 10.0581 -0.0315087 -52.016 4.30984 -4.78417 5.4812 25.658 -25.175 0.0 0.0 0.0 7.97977 8.94297 10.7087 -30.804 0.0124343 4.67076 36.9989 -6.47655 -4.68688 37.0527 -0.0 -0.0 -0.0 0.0 -0.0 45.1338 6.38308 -2.13485 -24.1558 -0.223203 -3.67282 6.58898 11.411 1.00468 21.7907 -0.0 -0.0 0.0 0.0 0.0 
2171.33 629.925 -1186.67 -22.4168 46.6717 10.7565 6.84599 0.267023 1.95749 6.84811 0.141946 1.97051 6.85007 -0.0400659 1.97521 6.84473 0.272323 1.95676 -13.6105 5.11822 -10.2616 -13.4893 16.086 -8.22976 -0.0 0.0 -0.0 2.26663 7.5137 4.92487 -17.0551 -17.8833 62.4097 1.18932 -30.5034 0.324294 -71.0486 -6.67991 5.31044 -6.1005 0.15458 -45.4033 -0.0 0.0 -0.0 10.5521 4.87522 -21.0024 -60.4477 59.8661 -45.7328 0.376544 10.5661 -0.0348187 -49.7079 4.03759 -4.66754 6.01692 27.2672 -27.832 0.0 0.0 0.0 9.60282 7.91545 11.2856 -36.1929 -0.242495 5.45796 38.0493 -7.96121 -4.81037 38.1886 -0.0 -0.0 -0.0 0.0 -0.0 42.5084 6.88581 -1.7683 -23.1513 -0.244922 -3.5202 9.40647 9.4979 1.4041 21.9765 -0.0 -0.0 0.0 0.0 0.0 
2153.14 633.436 -1197.81 -21.1246 46.8907 9.31933 6.58083 0.263942 2.10984 6.5833 0.129183 2.12235 6.58488 -0.0766084 2.1249 6.57867 0.259865 2.11035 -14.6427 6.21106 -8.47024 -14.6783 16.9418 -6.00128 -0.0 0.0 -0.0 3.34541 5.56621 6.75759 -17.4814 -15.0614 62.496 0.82471 -22.2217 0.161966 -70.9072 -6.66185 5.30948 -6.05789 -5.86224 -49.0974 -0.0 0.0 -0.0 10.277 5.08966 -20.4161 -58.7815 59.7869 -45.4695 0.484381 13.4931 -0.057301 -48.2235 3.86506 -4.58678 5.33584 27.5257 -22.9438 0.0 0.0 0.0 14.0245 12.0049 9.35659 -46.0567 -0.896338 6.82444 37.1111 -15.1871 -4.90739 39.3138 -0.0 -0.0 -0.0 0.0 -0.0 39.9707 -0.157381 0.586036 -21.4609 -0.275418 -3.2626 17.0053 13.54 2.51824 14.666 -0.0 -0.0 0.0 0.0 0.0 
2125.26 636.992 -1208.84 -20.9659 46.6286 8.67673 6.97533 0.328781 2.08284 6.97773 0.195608 2.09953 6.98149 0.00636019 2.10861 6.97545 0.339223 2.08117 -16.1959 6.28589 -9.09261 -16.2679 17.2621 -6.33457 -0.0 0.0 -0.0 3.06537 7.54182 6.35151 -18.2618 -11.7926 64.4475 0.684309 -18.726 0.112834 -69.993 -6.54513 5.3022 -5.92679 -10.7907 -50.7174 -0.0 0.0 -0.0 9.91684 5.07167 -19.6452 -56.4817 61.9929 -45.0602 0.478155 13.3259 -0.0558572 -48.9602 3.95042 -4.62742 4.93248 23.998 -22.4083 0.0 0.0 0.0 21.137 9.34954 10.0476 -56.0117 -1.78506 8.0716 38.2437 -20.1371 -5.19768 34.0767 -0.0 -0.0 -0.0 0.0 -0.0 38.882 -4.83148 2.50091 -22.6305 -0.255128 -3.44092 28.0925 20.6754 4.12871 4.53597 -0.0 -0.0 0.0 0.0 0.0 
2106.36 637.969 -1219.71 -22.3927 47.1987 9.78052 7.17729 0.183374 2.18406 7.17994 0.0440587 2.1913 7.17779 -0.145431 2.18691 7.17118 0.201691 2.18244 -15.5982 4.79269 -7.49086 -15.6134 13.5494 -5.42764 -0.0 0.0 -0.0 2.94744 8.77216 6.20626 -21.5574 -14.2532 64.9002 0.596909 -16.4726 0.0864028 -72.7282 -6.89454 5.31839 -5.65707 -12.3223 -48.7897 -0.0 0.0 -0.0 9.79602 4.38855 -19.3761 -51.1444 60.0827 -48.1918 0.50929 14.1597 -0.0632539 -46.0418 3.61539 -4.46004 4.11393 23.3555 -17.1781 0.0 0.0 0.0 26.1079 10.8195 7.73332 -62.631 -2.49068 8.80876 35.0751 -26.0462 -5.16631 38.6018 -0.0 -0.0 -0.0 0.0 -0.0 37.6159 -5.10485 2.77134 -20.9776 -0.282738 -3.18881 31.3842 17.5295 4.39702 3.81062 -0.0 -0.0 0.0 0.0 0.0 
2073.91 632.323 -1230.61 -23.2768 48.6467 11.179 7.27697 0.168129 1.73885 7.27865 0.0571574 1.74602 7.27791 -0.0908335 1.7446 7.27371 0.18579 1.73705 -14.6814 4.5081 -5.21217 -14.7195 11.7359 -3.46229 -0.0 0.0 -0.0 1.70355 10.3506 4.1471 -19.0929 -15.3552 70.057 0.304901 -8.58917 0.0228968 -74.2591 -7.0902 5.32013 -5.48608 -18.3379 -49.8939 -0.0 0.0 -0.0 9.72687 5.04602 -19.2401 -54.8494 59.9426 -44.1936 0.572763 15.8404 -0.079684 -46.4245 3.65884 -4.48296 3.59775 18.8739 -16.0641 0.0 0.0 0.0 31.4229 7.55888 8.2155 -69.7889 -3.34438 9.5095 33.3611 -28.102 -5.09448 37.7316 -0.0 -0.0 -0.0 0.0 -0.0 35.4935 -7.64313 4.25846 -20.6062 -0.28794 -3.13205 38.1014 20.1387 5.18427 -1.00935 0.0 0.0 0.0 0.0 0.0 
2057.55 633.575 -1244.05 -22.8039 50.1435 11.1933 7.08979 0.15477 1.70892 7.09141 0.0457302 1.7153 7.09047 -0.105228 1.71268 7.08641 0.166538 1.70781 -14.8027 5.09481 -4.80788 -14.8728 12.6068 -2.86976 -0.0 0.0 -0.0 1.07814 11.4897 3.1783 -19.6932 -17.3119 70.9081 0.218632 -6.1814 0.0118051 -75.8094 -7.28824 5.31651 -5.42893 -20.8246 -50.3042 -0.0 0.0 -0.0 10.1743 6.12915 -20.2127 -50.4865 57.9317 -46.0222 0.610025 16.8143 -0.0901594 -45.3096 3.5327 -4.41539 2.31086 17.8027 -7.86052 0.0 0.0 0.0 35.0143 3.09059 9.84737 -73.8463 -3.86518 9.85801 28.842 -28.6382 -4.58198 37.6426 -0.0 -0.0 -0.0 0.0 -0.0 34.2692 -11.0125 4.9959 -21.9348 -0.267635 -3.3349 38.2577 18.3277 5.1257 2.21669 -0.0 -0.0 0.0 0.0 0.0 
2038.67 636.525 -1254.1 -22.6654 50.8105 11.6128 7.2933 0.160164 1.4816 7.29452 0.0655727 1.48878 7.29441 -0.0602364 1.48901 7.29136 0.175655 1.47984 -15.8661 4.79142 -3.61024 -15.9536 11.2701 -1.73133 -0.0 0.0 -0.0 0.653874 12.2493 2.53864 -21.1067 -16.2341 71.8903 0.190677 -5.39604 0.00898546 -75.0583 -7.19232 5.31894 -4.42998 -25.0019 -42.6376 -0.0 0.0 -0.0 10.1738 8.36116 -20.2246 -49.4791 57.6476 -46.204 0.640159 17.5947 -0.0990727 -43.8506 3.36967 -4.3233 1.60485 15.9365 -3.97753 0.0 0.0 0.0 36.2893 2.34977 8.75576 -74.7925 -3.9901 9.93394 25.4393 -30.8344 -4.25324 37.9716 -0.0 -0.0 -0.0 0.0 -0.0 33.4619 -13.7911 5.7492 -23.3573 -0.240686 -3.55152 38.1399 21.1746 5.23314 5.48334 -0.0 -0.0 0.0 0.0 0.0 
2027.85 638.178 -1267.96 -23.457 51.2424 11.9454 7.30343 0.30291 1.62802 7.30488 0.198715 1.64399 7.30836 0.0597944 1.65487 7.30468 0.320366 1.62468 -15.6261 4.02801 -1.33519 -15.6888 8.49268 0.123309 -0.0 0.0 -0.0 -0.280172 11.9074 0.936954 -21.8758 -16.6258 73.0192 0.198412 -5.61357 0.0097275 -76.0374 -7.31735 5.31553 -4.27189 -26.4327 -41.7549 -0.0 0.0 -0.0 11.0668 8.90541 -22.1858 -48.4991 57.5731 -45.6305 0.641429 17.6275 -0.0994571 -42.3922 3.20909 -4.22713 1.25421 15.1367 -1.98069 0.0 0.0 0.0 41.2635 -0.629587 6.64989 -77.2695 -4.32288 10.1229 23.6043 -30.8131 -3.99279 35.2874 -0.0 -0.0 -0.0 0.0 -0.0 31.9816 -16.1054 5.9877 -21.7736 -0.270349 -3.31033 38.0513 23.4744 5.33407 5.75083 -0.0 -0.0 0.0 0.0 0.0 
